<svg width="9" height="9" viewBox="0 0 9 9" fill="none" xmlns="http://www.w3.org/2000/svg">
<path fill-rule="evenodd" clip-rule="evenodd" d="M1.39882 0.0484454C1.2747 0.127927 1.22288 0.235556 1.23411 0.390624C1.24517 0.543581 1.2933 0.622715 1.41858 0.693919C1.50268 0.741728 1.51157 0.741868 4.61942 0.741868H7.73593L3.89382 4.58494C1.78067 6.69864 0.0402111 8.4508 0.0261319 8.47865C-0.0177988 8.56562 -0.00474017 8.72632 0.0532929 8.81239C0.162122 8.97383 0.370898 9.04483 0.518161 8.97049C0.546018 8.95642 2.29884 7.21661 4.41334 5.10426L8.25785 1.2636V4.37893V7.49427L8.30698 7.58163C8.40862 7.76239 8.67104 7.82585 8.84062 7.71066C9.01305 7.59353 9.00015 7.89919 8.99957 3.94962C8.99909 0.546734 8.99735 0.401985 8.95601 0.312927C8.93233 0.261918 8.87778 0.186796 8.83475 0.146012C8.66917 -0.0110266 8.95414 -0.000129297 5.02874 0.000311236C1.47902 0.000705397 1.47329 0.000775047 1.39882 0.0484454Z" fill="#222222"/>
</svg>
