<svg width="150" height="170" viewBox="0 0 150 170" fill="none" xmlns="http://www.w3.org/2000/svg">
<path fill-rule="evenodd" clip-rule="evenodd" d="M135.606 0.723936C133.888 1.09777 130.58 1.95988 128.256 2.64024C125.931 3.32109 119.398 4.96673 113.738 6.29798C103.602 8.68292 90.5243 12.1633 87.8894 13.1777C86.6732 13.6464 86.5419 13.9313 86.5419 16.1035C86.5419 17.4274 86.684 19.2229 86.8575 20.0933L87.1735 21.6761L89.9201 21.3411C98.1692 20.3355 115.697 16.944 128.311 13.9131C134.889 12.3323 138.273 11.7487 140.244 11.8543L142.996 12.0017L139.882 16.2882C138.17 18.6456 136.604 20.5801 136.402 20.5865C136.199 20.5929 136.032 19.9907 136.029 19.2474C136.018 16.4931 135.419 14.2123 134.706 14.2123C133.22 14.2123 117.271 20.8695 108.348 25.2149C82.9113 37.6009 64.1899 50.7827 45.8699 69.2055C14.2035 101.049 -2.31859 135.245 0.262855 163.601C0.56471 166.917 0.916548 169.735 1.04493 169.864C1.77948 170.601 2.01861 168.458 2.06761 160.682C2.1127 153.506 2.30184 151.339 3.15841 148.164C6.01329 137.583 11.773 126.445 23.0196 109.757C29.5031 100.138 36.187 92.152 46.0899 82.1947C61.8432 66.3539 76.9977 55.2289 99.7818 42.7771C108.479 38.0239 130.051 27.7001 130.45 28.0995C130.555 28.2051 128.216 31.2311 125.252 34.8235C121.834 38.9675 119.864 41.7695 119.864 42.4887C119.864 43.1121 120.195 45.2033 120.601 47.1358C121.006 49.0688 121.196 50.8805 121.023 51.1619C120.849 51.4434 120.937 51.5898 121.217 51.4871C122.713 50.9404 136.856 33.1341 145.161 21.342L150 14.4716V9.2164C150 4.06875 149.971 3.92973 148.558 2.45161C146.142 -0.0767767 141.893 -0.643661 135.606 0.723936Z" fill="#7B7B7B" fill-opacity="0.1"/>
</svg>
