<svg width="10" height="12" viewBox="0 0 10 12" fill="none" xmlns="http://www.w3.org/2000/svg">
<path fill-rule="evenodd" clip-rule="evenodd" d="M4.71386 0.061061C4.64477 0.0961217 4.55482 0.168612 4.514 0.222124C4.3503 0.436757 4.357 0.240166 4.357 4.83715V9.07976L2.6683 7.39217C1.49588 6.22051 0.946346 5.69083 0.870873 5.65969C0.456841 5.48877 0 5.80528 0 6.26309C0 6.50369 0.0459095 6.55428 2.38971 8.89589C3.95732 10.4621 4.6676 11.1525 4.74351 11.184C4.9216 11.258 5.13743 11.2425 5.30735 11.1435C5.40429 11.087 6.19951 10.3111 7.66729 8.84094C9.97519 6.52933 9.99841 6.50363 9.99999 6.26151C10.003 5.79639 9.52153 5.47734 9.10876 5.67095C9.02984 5.70797 8.44983 6.26879 7.32502 7.39567L5.65825 9.06552L5.64363 4.7734L5.62901 0.481321L5.5559 0.340055C5.51359 0.258296 5.42973 0.160424 5.35683 0.10776C5.18641 -0.0153473 4.90466 -0.0358165 4.71386 0.061061Z" fill="#222222"/>
</svg>
