<svg width="50" height="27" viewBox="0 0 50 27" fill="none" xmlns="http://www.w3.org/2000/svg">
<path fill-rule="evenodd" clip-rule="evenodd" d="M0 13.372C0 26.7209 0.000470206 26.7442 0.240278 26.8717C0.402031 26.9577 1.48881 26.9877 3.56115 26.9634L6.64174 26.9274L6.6716 13.4637L6.70145 0H3.35073H0V13.372ZM15.4674 0.773942C14.8813 1.4563 14.8205 1.57335 14.954 1.76272C15.2136 2.13059 19.3757 5.60743 19.5564 5.60743C19.714 5.60743 21.1595 3.92789 21.1595 3.74483C21.1595 3.70079 20.6391 3.23689 20.003 2.71411C18.6811 1.62756 18.5222 1.46167 18.6329 1.28375C18.7377 1.11529 19.0714 1.33422 20.3566 2.41447C20.9171 2.88549 21.4549 3.271 21.5518 3.271C21.6485 3.271 21.8246 3.14577 21.9432 2.99262C22.0617 2.83958 22.6086 2.19554 23.1584 1.56155C23.7081 0.927563 24.2303 0.31682 24.3189 0.204438C24.4714 0.0105139 24.264 0 20.3061 0H16.1322L15.4674 0.773942ZM30.5217 0.321259C30.4306 0.49801 30.1341 1.16821 29.8629 1.81073C28.1349 5.90474 27.0975 8.31909 25.7464 11.3901C25.1529 12.7394 24.6387 13.9361 24.6037 14.0495C24.5439 14.2438 24.7449 14.2539 28.1062 14.2248L31.6721 14.1938L32.1065 13.2008C33.0741 10.9882 33.2732 10.5241 33.7351 9.40413C34.4838 7.58884 34.7123 7.11793 34.826 7.15567C34.9605 7.20017 38.8996 16.968 38.8304 17.0851C38.8018 17.1333 36.9699 17.1731 34.7593 17.1735C31.4401 17.174 30.682 17.2043 30.4065 17.3472C30.223 17.4423 28.0346 19.5315 25.5434 21.99C23.0522 24.4485 20.941 26.5296 20.8516 26.6144C20.7624 26.6993 20.6893 26.8177 20.6893 26.8772C20.6893 27.054 26.953 27.0177 27.172 26.8397C27.2709 26.7595 27.6529 25.9577 28.0212 25.0582C28.3894 24.1587 28.7399 23.3439 28.8001 23.2475C28.895 23.0955 29.701 23.0722 34.8909 23.0722C41.3746 23.0722 41.1404 23.0493 41.404 23.71C41.4691 23.8733 41.7549 24.6114 42.039 25.3503C42.3231 26.0892 42.6448 26.7595 42.7536 26.8397C43.0537 27.061 49.9101 27.0495 49.9958 26.8277C50.0294 26.7408 49.8566 26.2019 49.6118 25.6303C49.367 25.0587 48.7878 23.671 48.3247 22.5465C47.8616 21.4221 47.382 20.2656 47.2588 19.9765C46.9016 19.1373 44.0278 12.1644 41.0721 4.96491C40.2017 2.8446 39.3764 0.86004 39.2384 0.554902L38.9873 0H34.8374H30.6873L30.5217 0.321259ZM14.0966 2.47732C13.8993 2.689 13.0935 3.62404 12.3058 4.55534C11.5181 5.48664 10.4637 6.71373 9.9626 7.2823C9.46148 7.85087 9.05157 8.37844 9.05157 8.4546C9.05157 8.67528 12.7332 12.9439 13.0167 13.0521C13.1262 13.0938 13.307 12.9705 13.5008 12.7217C13.671 12.5033 14.1018 12.0066 14.4579 11.6177C14.8141 11.2288 15.5552 10.3907 16.1047 9.75518C16.6543 9.11967 17.3743 8.30753 17.7046 7.95052C18.0351 7.59351 18.4999 7.04504 18.7377 6.73172C19.2623 6.04037 19.289 6.09166 17.7505 4.83349C17.1363 4.33127 16.237 3.55967 15.7521 3.11878C14.5402 2.01716 14.5293 2.01295 14.0966 2.47732ZM11.8405 14.9824C11.2164 15.7052 10.3336 16.7121 9.87867 17.2201C9.42374 17.7279 9.05157 18.2302 9.05157 18.3363C9.05157 18.5938 9.09871 18.6532 12.7762 23.0323C14.7559 25.3896 16.0755 26.8653 16.244 26.9102C16.5869 27.0014 17.8442 27.0046 18.1801 26.9151C18.3493 26.87 18.541 26.6087 18.7577 26.1281C18.936 25.7324 19.3907 24.7646 19.768 23.9776C20.4321 22.5927 20.5803 22.0537 20.3384 21.9051C20.2747 21.8659 18.6809 19.9967 16.7968 17.751C14.7814 15.3491 13.2896 13.6681 13.1731 13.6681C13.0642 13.6681 12.4646 14.2596 11.8405 14.9824ZM5.14846 22.0708C5.16774 22.5482 5.12342 23.0739 5.05019 23.2391C4.90019 23.5769 3.51142 24.7662 3.26679 24.7662C3.17969 24.7662 2.76708 24.4239 2.34988 24.0056L1.59143 23.2451L1.547 22.3707C1.52254 21.8899 1.53371 21.4158 1.57168 21.3174C1.63022 21.1657 1.90577 21.1434 3.37718 21.1707L5.11355 21.2031L5.14846 22.0708Z" fill="#222222"/>
</svg>
