<svg width="139" height="56" viewBox="0 0 139 56" fill="none" xmlns="http://www.w3.org/2000/svg">
<g clip-path="url(#clip0_2536_11)">
<path d="M95.0313 20.8353H93.7115L79.4402 2.92353V20.8353H77.9141V0H79.234L93.5052 17.9529V0H95.0313V20.8353Z" fill="#222222"/>
<path d="M71.6031 0V12.1059C71.6031 15.1118 70.8606 17.3353 69.3758 18.8176C67.8909 20.3 65.8286 21.1235 63.725 21.0412C61.209 21.0412 59.1467 20.2588 57.5793 18.6941C56.012 17.1294 55.2695 14.8235 55.2695 11.9V0H56.9194V11.6118C56.9194 16.5941 59.5591 19.5176 63.725 19.5176C67.5197 19.5176 69.9944 16.8824 69.9944 11.7353V0H71.6031Z" fill="#222222"/>
<path d="M102.373 20.8353V0H104.023V20.8353H102.373Z" fill="#222222"/>
<path d="M108.312 1.56471V0H125.388V1.56471H117.675V20.8353H116.026V1.56471H108.312Z" fill="#222222"/>
<path d="M54.5699 28.1653C54.5286 26.7653 55.1473 25.3653 56.2197 24.4594C57.3334 23.4712 58.8182 22.9771 60.6743 22.9771C62.9841 22.9771 65.0877 23.7594 66.2838 25.077L65.3764 26.3123C64.139 25.1182 62.4479 24.4594 60.7156 24.5418C57.9933 24.5418 56.261 25.9829 56.261 28.2065C56.261 34.0123 67.0263 31.6653 67.0263 38.8712C67.0675 40.4359 66.3251 41.9183 65.0877 42.8242C63.7265 43.8536 62.0767 44.3889 60.3444 44.3477C59.0245 44.3477 57.7458 44.0595 56.5497 43.5242C55.4773 43.1124 54.5699 42.3301 53.9512 41.3418L54.9411 40.1888C56.261 41.7948 58.2408 42.7418 60.3444 42.783C61.5817 42.8242 62.8191 42.4536 63.809 41.7536C64.7577 41.1359 65.2939 40.0241 65.2527 38.9123C65.3352 33.0241 54.5699 35.1241 54.5699 28.1653Z" fill="#222222"/>
<path d="M73.6244 44.0582H71.9746V23.223C72.3458 23.223 73.2119 23.223 74.4906 23.1818C75.7692 23.1406 76.6766 23.1406 77.0478 23.1406C82.8223 23.1406 84.4722 26.3112 84.4722 29.3994C84.5134 31.0877 83.8122 32.7347 82.6161 33.9289C81.3787 35.1642 79.5226 35.7818 77.0891 35.7818C75.8517 35.7818 74.6556 35.7406 73.6244 35.6583V44.0582ZM73.6244 24.7877V34.1347C74.903 34.2171 76.0579 34.2995 77.0066 34.2995C80.7188 34.2995 82.7398 32.4053 82.7398 29.4406C82.7398 26.5994 80.9662 24.7465 77.2128 24.7465C76.1404 24.7465 74.9443 24.7465 73.6244 24.7877Z" fill="#222222"/>
<path d="M84.8438 44.0586L93.9179 23.0586H95.279L104.353 44.0586H102.58L99.5275 36.9762H89.5458L86.4936 44.0586H84.8438ZM94.5366 25.3233L90.2057 35.4115H98.8674L94.5366 25.3233Z" fill="#222222"/>
<path d="M122.79 42.0418C121.346 43.483 118.83 44.3477 116.314 44.3477C113.179 44.3477 110.704 43.3595 108.766 41.4242C106.827 39.4888 105.879 36.8947 105.879 33.6418C105.879 30.5947 106.786 28.0418 108.683 26.0241C110.581 24.0065 113.014 22.9771 116.108 22.9771C118.747 22.9771 120.851 23.6359 122.418 24.9535L121.635 26.1888C120.191 25.0771 118.335 24.5418 116.108 24.5418C113.757 24.4594 111.488 25.4065 109.921 27.1359C108.353 28.8241 107.57 31.0476 107.57 33.6829C107.57 36.4006 108.395 38.5829 110.003 40.2712C111.612 41.9595 113.798 42.783 116.396 42.783C118.459 42.8242 120.48 42.1242 122.088 40.8065L122.79 42.0418Z" fill="#222222"/>
<path d="M127.121 44.0588V23.2236H138.628V24.7883H128.77V32.7354H137.762V34.2589H128.77V42.4941H138.958V44.0588H127.121Z" fill="#222222"/>
<path d="M57.4558 51.8825C57.4558 52.2531 57.332 52.6237 57.0433 52.8707C56.7546 53.159 56.3834 53.2825 56.0122 53.2825C55.3935 53.2825 54.816 52.9531 54.5273 52.3766L55.0635 52.006C55.1872 52.4178 55.5585 52.6649 56.0122 52.706C56.2184 52.706 56.4246 52.6237 56.5484 52.5002C56.6721 52.3766 56.7546 52.1708 56.7546 52.006C56.7546 51.8413 56.6721 51.6766 56.5484 51.5531C56.3009 51.3884 56.0534 51.2649 55.7647 51.1413C55.1047 50.8531 54.7335 50.4825 54.7335 49.9884C54.7335 49.659 54.8573 49.3707 55.1047 49.1649C55.3522 48.959 55.6409 48.8354 55.9709 48.8354C56.4659 48.8354 56.8783 49.0825 57.0846 49.5355L56.5896 49.906C56.4659 49.659 56.2184 49.4943 55.9709 49.4943C55.8059 49.4943 55.6822 49.5355 55.5585 49.659C55.3522 49.8237 55.311 50.1119 55.476 50.2766C55.476 50.3178 55.5172 50.3178 55.5585 50.359C55.7647 50.5237 55.9709 50.606 56.2184 50.6884C56.5484 50.8119 56.8783 50.9766 57.1258 51.2237C57.3733 51.3472 57.497 51.6355 57.4558 51.8825Z" fill="#222222"/>
<path d="M62.6107 51.0181C62.6107 51.6357 62.3632 52.2122 61.9507 52.624C61.0433 53.4887 59.5997 53.4887 58.6923 52.624C57.7849 51.7593 57.7849 50.3181 58.6923 49.4122C59.5997 48.5475 61.0433 48.5475 61.9507 49.4122C62.3632 49.824 62.6107 50.4004 62.6107 51.0181ZM61.8682 51.0181C61.8682 50.6063 61.7032 50.1946 61.4145 49.9063C61.1258 49.6181 60.7133 49.4534 60.3009 49.4534C59.8884 49.4534 59.476 49.6181 59.1872 49.9063C58.6098 50.524 58.6098 51.5122 59.1872 52.171C59.476 52.4593 59.8884 52.624 60.3009 52.624C60.7133 52.624 61.1258 52.4593 61.4145 52.171C61.7032 51.8416 61.8682 51.4299 61.8682 51.0181Z" fill="#222222"/>
<path d="M65.1295 46.4056C64.9645 46.3232 64.7995 46.2409 64.6345 46.2409C64.387 46.2409 64.2633 46.4879 64.2633 46.982V48.8761H65.0882V49.535H64.2633V53.1173H63.5209V49.535H62.9434V48.8761H63.5209V46.8997C63.5209 46.035 63.8921 45.582 64.5933 45.582C64.7583 45.582 64.9645 45.6232 65.0882 45.7056V46.4056H65.1295Z" fill="#222222"/>
<path d="M67.026 49.5347H66.366V53.1582H65.6648V49.5347H65.1699V48.8759H65.6648V47.0229H66.366V48.8759H67.026V49.5347Z" fill="#222222"/>
<path d="M73.788 48.8771L71.8494 53.3242L70.4058 50.1948L68.9209 53.3242L66.9824 48.8771H67.7248L68.9209 51.7595L70.4058 48.7124L71.8494 51.7595L73.0456 48.8771H73.788Z" fill="#222222"/>
<path d="M78.3685 53.1172H77.6673V52.4172C77.3373 52.9525 76.7599 53.2819 76.0999 53.2819C75.5225 53.2819 74.9863 53.076 74.615 52.6231C73.8314 51.676 73.8314 50.3172 74.615 49.3702C74.9863 48.9584 75.5225 48.7113 76.0999 48.7525C76.4299 48.7525 76.7186 48.8349 77.0073 48.9996C77.2548 49.1643 77.5023 49.3702 77.626 49.6172V48.876H78.3272V53.1172H78.3685ZM77.7085 51.0172C77.7498 50.6054 77.5848 50.1525 77.2961 49.8231C77.0073 49.5349 76.6361 49.3702 76.2237 49.3702C75.8112 49.3702 75.44 49.5349 75.1925 49.8231C74.9038 50.1525 74.78 50.5643 74.78 50.976C74.78 51.3878 74.9038 51.8407 75.1925 52.1702C75.44 52.4584 75.8524 52.6643 76.2237 52.6231C76.6361 52.6231 77.0073 52.4584 77.2548 52.1702C77.5848 51.8407 77.7085 51.429 77.7085 51.0172Z" fill="#222222"/>
<path d="M81.9136 48.8765L81.7073 49.5765C81.5836 49.4529 81.4186 49.4118 81.2536 49.4118C80.9237 49.4118 80.6349 49.6176 80.5112 49.9059C80.3462 50.2353 80.2637 50.6059 80.2637 50.9765V53.1176H79.5625V48.8765H80.2637V49.5353C80.4287 49.0823 80.8412 48.7941 81.3361 48.7529C81.5424 48.7529 81.7486 48.7941 81.9136 48.8765Z" fill="#222222"/>
<path d="M86.4126 51.1823H82.8242C82.8654 51.5529 83.0304 51.9235 83.2779 52.2117C83.5253 52.4588 83.8966 52.6235 84.2678 52.6235C84.804 52.6647 85.3402 52.4176 85.6289 51.9647L86.1651 52.3352C85.7526 52.9529 85.0102 53.3235 84.2678 53.3235C83.6903 53.3235 83.1541 53.0764 82.7417 52.6647C82.3292 52.2117 82.123 51.6352 82.123 51.0588C82.123 50.4823 82.3292 49.9058 82.7417 49.4529C83.5253 48.6294 84.804 48.5882 85.6702 49.3294C85.7114 49.3705 85.7526 49.4117 85.7939 49.4529C86.2064 49.8647 86.4126 50.4411 86.4126 51.0588V51.1823ZM85.7526 50.6058C85.6702 50.2764 85.4639 49.9882 85.2164 49.7411C84.969 49.5352 84.639 49.3705 84.309 49.3705C83.9791 49.3705 83.6491 49.4941 83.4016 49.7411C83.1541 49.947 82.9479 50.2764 82.8654 50.6058H85.7526Z" fill="#222222"/>
<path d="M94.0409 53.1178H93.381V52.3766C93.051 52.9119 92.4323 53.2414 91.7724 53.2414C91.1949 53.2414 90.7 53.0355 90.3288 52.5825C89.9163 52.1296 89.7101 51.5943 89.7513 50.9766C89.7101 50.359 89.9163 49.7825 90.3288 49.3296C91.03 48.5472 92.2673 48.4649 93.0923 49.2061C93.216 49.3296 93.3397 49.4531 93.4222 49.5766C93.4222 49.4943 93.4222 49.3708 93.4222 49.1649C93.4222 48.959 93.4222 48.7943 93.4222 48.7119V45.7061H94.1234V53.1178H94.0409ZM93.381 50.9355C93.381 50.5237 93.2573 50.1119 92.9685 49.8237C92.6798 49.5355 92.3086 49.3708 91.9374 49.3708C91.5249 49.3708 91.1537 49.5355 90.9062 49.8237C90.6175 50.1531 90.4938 50.5649 90.4938 50.9766C90.4938 51.4296 90.6175 51.8413 90.9062 52.1708C91.1537 52.459 91.5662 52.6649 91.9374 52.6237C92.3498 52.6237 92.7211 52.459 93.0098 52.1708C93.2573 51.8413 93.4222 51.3884 93.381 50.9355Z" fill="#222222"/>
<path d="M99.1569 51.1823H95.5684C95.6097 51.5529 95.7747 51.9235 96.0221 52.2117C96.2696 52.4588 96.6408 52.6235 97.0121 52.6235C97.5483 52.6647 98.0845 52.4176 98.3732 51.9647L98.9094 52.3352C98.4969 52.9529 97.7545 53.3235 97.0121 53.3235C96.4346 53.3235 95.8984 53.0764 95.4859 52.6647C94.661 51.7588 94.661 50.3588 95.4859 49.4529C96.2696 48.6294 97.5483 48.5882 98.4144 49.3294C98.4557 49.3705 98.4969 49.4117 98.5382 49.4529C98.9506 49.8647 99.1569 50.4411 99.1569 51.0588V51.1823ZM98.4969 50.6058C98.4144 50.2764 98.2082 49.9882 97.9607 49.7411C97.7132 49.5352 97.3833 49.3705 97.0533 49.3705C96.7233 49.3705 96.3934 49.4941 96.1459 49.7411C95.8984 49.947 95.6922 50.2764 95.6097 50.6058H98.4969Z" fill="#222222"/>
<path d="M103.527 48.876L101.424 53.2819L99.3613 48.876H100.104L101.424 51.8407L102.785 48.876H103.527Z" fill="#222222"/>
<path d="M107.981 51.1829H104.393C104.434 51.5535 104.599 51.9241 104.846 52.2124C105.094 52.4594 105.465 52.6241 105.836 52.6241C106.372 52.6653 106.909 52.4182 107.197 51.9241L107.734 52.2947C107.321 52.9124 106.579 53.2829 105.836 53.2829C105.259 53.2829 104.723 53.0359 104.31 52.6241C103.485 51.7182 103.485 50.3182 104.31 49.4124C105.094 48.5888 106.372 48.5477 107.239 49.2888C107.28 49.33 107.321 49.3712 107.362 49.4124C107.775 49.8241 107.981 50.4006 107.981 51.0182V51.1829ZM107.321 50.6065C107.239 50.2771 107.032 49.9888 106.785 49.7418C106.537 49.5359 106.207 49.3712 105.877 49.3712C105.547 49.3712 105.217 49.4947 104.97 49.7418C104.723 49.9477 104.516 50.2771 104.434 50.6065H107.321Z" fill="#222222"/>
<path d="M109.591 53.1587H108.848V45.6646H109.591V53.1587Z" fill="#222222"/>
<path d="M115.037 51.0181C115.037 51.6357 114.789 52.2122 114.377 52.624C113.47 53.4887 112.025 53.4887 111.118 52.624C110.211 51.7593 110.211 50.3181 111.118 49.4122C112.025 48.5475 113.47 48.5475 114.377 49.4122C114.789 49.824 115.037 50.4004 115.037 51.0181ZM114.295 51.0181C114.295 50.6063 114.13 50.1946 113.841 49.9063C113.222 49.2887 112.232 49.2887 111.614 49.9063C111.036 50.524 111.036 51.5122 111.614 52.171C111.902 52.4593 112.315 52.624 112.727 52.624C113.14 52.624 113.552 52.4593 113.841 52.171C114.13 51.8416 114.295 51.4299 114.295 51.0181Z" fill="#222222"/>
<path d="M120.192 51.0183C120.233 51.6359 120.027 52.2124 119.614 52.6653C119.243 53.0771 118.707 53.3242 118.129 53.283C117.469 53.283 116.851 52.9948 116.521 52.4183C116.521 52.4595 116.521 52.583 116.562 52.7477C116.562 52.9124 116.603 53.0359 116.603 53.1183V55.6712H115.902V48.8359H116.562V49.5771C116.892 49.0418 117.511 48.7124 118.171 48.7124C118.748 48.7124 119.284 48.9595 119.656 49.3712C120.027 49.8653 120.233 50.4418 120.192 51.0183ZM119.449 51.0183C119.449 50.6065 119.326 50.1536 119.037 49.8653C118.789 49.5771 118.377 49.4124 118.006 49.4124C117.593 49.4124 117.222 49.5771 116.975 49.8653C116.686 50.1948 116.562 50.6065 116.562 51.0183C116.562 51.4301 116.686 51.883 116.975 52.1712C117.263 52.5006 117.634 52.6653 118.047 52.6242C118.459 52.6242 118.831 52.4595 119.078 52.1712C119.367 51.8418 119.491 51.4301 119.449 51.0183Z" fill="#222222"/>
<path d="M126.751 53.1176H126.05V50.5235C126.05 49.7412 125.802 49.3706 125.266 49.3706C124.606 49.3706 124.276 49.8235 124.276 50.7706V53.1176H123.575V50.5235C123.575 49.7412 123.327 49.3706 122.791 49.3706C122.502 49.3706 122.214 49.5353 122.049 49.7823C121.843 50.1118 121.76 50.5235 121.76 50.9353V53.1588H121.059V48.8765H121.76V49.5353C122.008 49.0823 122.42 48.7941 122.956 48.7529C123.204 48.7529 123.492 48.8353 123.699 49C123.905 49.1235 124.029 49.3294 124.111 49.5353C124.235 49.3294 124.4 49.1647 124.606 49C124.854 48.8353 125.101 48.7529 125.39 48.7529C126.338 48.7529 126.792 49.3294 126.792 50.4823L126.751 53.1176Z" fill="#222222"/>
<path d="M131.864 51.1823H128.275C128.317 51.5529 128.482 51.9235 128.729 52.2117C128.977 52.4588 129.348 52.6235 129.719 52.6235C130.255 52.6647 130.791 52.4176 131.08 51.9647L131.616 52.3352C131.204 52.9529 130.461 53.3235 129.719 53.3235C129.142 53.3235 128.605 53.0764 128.193 52.6647C127.78 52.2117 127.574 51.6352 127.574 51.0588C127.574 50.4823 127.78 49.9058 128.193 49.4529C128.977 48.6294 130.255 48.5882 131.121 49.3294C131.163 49.3705 131.204 49.4117 131.245 49.4529C131.658 49.8647 131.864 50.4411 131.864 51.0588V51.1823ZM131.204 50.6058C131.121 50.2764 130.915 49.9882 130.668 49.7411C130.42 49.5352 130.09 49.3705 129.76 49.3705C129.43 49.3705 129.1 49.4941 128.853 49.7411C128.564 49.947 128.399 50.2764 128.317 50.6058H131.204Z" fill="#222222"/>
<path d="M136.236 53.1183H135.534V50.5653C135.576 50.2359 135.493 49.9477 135.328 49.6595C135.122 49.4536 134.875 49.3712 134.586 49.3712C134.256 49.3712 133.926 49.5359 133.761 49.8242C133.555 50.1536 133.431 50.5653 133.472 50.9771V53.1183H132.771V48.8359H133.431V49.4536C133.72 49.0006 134.215 48.7124 134.751 48.7124C135.741 48.7124 136.236 49.2889 136.236 50.4418V53.1183Z" fill="#222222"/>
<path d="M138.669 49.5347H138.009V53.1582H137.307V49.5347H136.812V48.8759H137.307V47.0229H138.009V48.8759H138.669V49.5347Z" fill="#222222"/>
<path d="M21.2006 48.176C9.48665 48.176 0 38.7055 0 27.0114C0 15.3173 9.48665 5.84668 21.2418 5.84668C32.9558 5.84668 42.4424 15.3173 42.4424 27.0114C42.4424 38.7055 32.9558 48.176 21.2006 48.176ZM21.2006 7.0408C10.1466 7.0408 1.19614 15.9761 1.19614 27.0114C1.19614 38.0467 10.1466 46.9819 21.2006 46.9819C32.2546 46.9819 41.205 38.0467 41.205 27.0114C41.205 15.9761 32.2546 7.0408 21.2006 7.0408Z" fill="#222222"/>
<path d="M16.4153 9.92309C16.4153 12.8878 14.023 15.2349 11.0532 15.2349C8.08345 15.2349 5.73242 12.8466 5.73242 9.92309C5.73242 6.99956 8.1247 4.61133 11.0532 4.61133C13.9817 4.61133 16.4153 6.99956 16.4153 9.92309Z" fill="#222222"/>
<path d="M44.5874 27.1768C44.5874 28.7003 43.35 29.9356 41.8239 29.9356C40.2979 29.9356 39.0605 28.7003 39.0605 27.1768C39.0605 25.6533 40.2979 24.418 41.8239 24.418C43.35 24.418 44.5874 25.6533 44.5874 27.1768C44.6287 27.1768 44.6287 27.1768 44.5874 27.1768Z" fill="#222222"/>
</g>
<defs>
<clipPath id="clip0_2536_11">
<rect width="139" height="56" fill="white"/>
</clipPath>
</defs>
</svg>
